# xmcd
#
# Track frame offsets:
#	180
#	12492
#	28599
#	47526
#	62045
#	80012
#	102026
#	124302
#	145375
#	151675
#	162476
#	181731
#
# Disc length: 2713 seconds
#
# Revision: 0
# Processed by: cddbd v1.5.1PL2 Copyright (c) Steve Scherf et al.
# Submitted via: dBpowerAMP V4.0
#
DISCID=970a970c
DTITLE=Sharon Hucikel -  Tabernacle
DYEAR=1900
DGENRE=Gospel
TTITLE0=My Soul Waits for the Lord
TTITLE1=We Did Not Know Him
TTITLE2=Rest in Yeshua
TTITLE3=As for Me
TTITLE4=House of Prayer
TTITLE5=Your Face
TTITLE6=My Peace Shall  be Her Namesake
TTITLE7=We are the Temple of God
TTITLE8=My People
TTITLE9=Zion
TTITLE10=Psalm 135
TTITLE11=Tabernacle
EXTD=
EXTT0=
EXTT1=
EXTT2=
EXTT3=
EXTT4=
EXTT5=
EXTT6=
EXTT7=
EXTT8=
EXTT9=
EXTT10=
EXTT11=
PLAYORDER=
